<svg version="1.1" xmlns="http://www.w3.org/2000/svg" style="display: block;" viewBox="0 0 2048 2048" width="2048" height="2048" preserveAspectRatio="none"><metadata></metadata>
<path transform="translate(0,0)" fill="rgb(79,70,229)" d="M 0 0 L 988.361 0 L 1056.79 0 L 2048 0 L 2048 990.454 L 2048 1061.65 L 2048 2048 L 1060.78 2048 L 992.243 2048 L 0 2048 L 0 1051.81 L 0 994.34 L 0 0 z"></path>
<path transform="translate(0,0)" fill="rgb(255,255,255)" d="M 0 0 L 988.361 0 C 971.995 2.03188 952.742 2.14489 935.903 3.72085 C 896.499 7.62548 857.308 13.4416 818.468 21.1488 C 577.24 69.7278 361.768 204.028 211.912 399.206 C 109.298 532.836 41.2978 689.753 13.9604 856.004 C 9.0939 885.178 5.54395 914.557 3.3213 944.051 C 2.69656 952.717 1.19239 988.679 0 994.34 L 0 0 z"></path>
<path transform="translate(0,0)" fill="rgb(255,255,255)" d="M 0 1051.81 L 0.14206 1052.8 C 2.04149 1066.93 2.17509 1089.26 3.4371 1104.86 C 6.39504 1142.25 11.3495 1179.45 18.2794 1216.31 C 64.5145 1461.23 198.748 1680.77 395.675 1833.55 C 532.743 1939.83 694.664 2009.38 866.115 2035.62 C 892.696 2040 919.468 2043.12 946.344 2044.97 C 957.949 2045.83 982.022 2046.29 992.243 2048 L 0 2048 L 0 1051.81 z"></path>
<path transform="translate(0,0)" fill="rgb(255,255,255)" d="M 1056.79 0 L 2048 0 L 2048 990.454 C 2047.01 985.8 2046.91 978.949 2046.66 973.984 C 2044.5 930.807 2039.16 888.107 2031.97 845.446 C 2003.1 678.399 1932.92 521.221 1827.83 388.206 C 1679.54 200.556 1470 71.0093 1235.86 22.2235 C 1195.06 13.9752 1153.86 7.85286 1112.42 3.88142 C 1095 2.24192 1074.44 2.12497 1057.86 0.135121 L 1056.79 0 z"></path>
<path transform="translate(0,0)" fill="rgb(255,255,255)" d="M 1060.78 2048 C 1068.04 2046.46 1098.54 2045.59 1107.81 2044.64 C 1135.11 2041.84 1163.22 2039.16 1190.3 2034.6 C 1354.81 2007.66 1510.29 1941.05 1643.29 1840.53 C 1841.55 1690.63 1978.04 1473.29 2026.95 1229.59 C 2034.62 1192.07 2040.22 1154.15 2043.74 1116 C 2045.29 1100.04 2045.78 1077.38 2047.85 1062.66 L 2048 1061.65 L 2048 2048 L 1060.78 2048 z"></path>
<path transform="translate(0,0)" fill="rgb(255,255,255)" d="M 546.485 436.311 C 593.642 437.465 642.482 436.737 689.753 436.757 L 928.766 436.888 L 1043.43 436.658 C 1117.15 436.5 1155.83 434.813 1228.34 454.031 C 1295.12 472.166 1356.45 506.367 1406.98 553.649 C 1488.39 629.513 1535.89 734.921 1538.8 846.165 C 1541.14 958.104 1499.68 1066.53 1423.25 1148.35 C 1387.64 1186.25 1345.16 1217.03 1298.06 1239.07 C 1215.29 1277.87 1149.65 1283.14 1059.55 1282.09 C 1018.52 1281.61 969.116 1281.56 928.112 1282.6 C 926.801 1356.54 927.97 1433.93 927.984 1508.22 C 849.515 1584.37 773.176 1664.28 694.83 1740.53 L 694.798 1696.25 L 694.853 772.04 C 772.182 772.9 850.588 772.369 927.992 772.19 L 928.001 1052.78 L 1039.99 1052.89 C 1120.1 1052.89 1189.57 1054.9 1249.83 993.5 C 1352.61 888.758 1300.01 698.616 1152.39 671.829 C 1118.2 665.624 1092.73 666.316 1058.9 666.221 L 968.073 666.13 L 693.056 666.371 C 683.881 653.851 671.7 633.495 663.133 620.104 L 603.924 526.819 L 567.244 469.581 C 561.469 460.612 550.986 445.196 546.485 436.311 z"></path>
</svg>